<svg xmlns="http://www.w3.org/2000/svg" version="1.1" xmlns:xlink="http://www.w3.org/1999/xlink" xmlns:svgjs="http://svgjs.dev/svgjs" viewBox="0 0 2400 800" opacity="0.81"><defs><linearGradient x1="50%" y1="0%" x2="50%" y2="100%" id="sssurf-grad"><stop stop-color="#e8b837" stop-opacity="1" offset="0%"></stop><stop stop-color="hsla(49, 80%, 96%, 0.30)" stop-opacity="1" offset="100%"></stop></linearGradient></defs><g fill="url(#sssurf-grad)" transform="matrix(1,0,0,1,0,-123.73367309570312)"><path d="M 0 322.4980985838767 Q 600 450 600 323.4324011239242 Q 1200 450 1200 322.70378843645176 Q 1800 450 1800 310.949761759226 Q 2400 450 2400 332.04174656181425 L 2400 800 L 0 800 L 0 305.4673620324097 Z" transform="matrix(1,0,0,1,0,57)" opacity="0.05"></path><path d="M 0 322.4980985838767 Q 600 450 600 323.4324011239242 Q 1200 450 1200 322.70378843645176 Q 1800 450 1800 310.949761759226 Q 2400 450 2400 332.04174656181425 L 2400 800 L 0 800 L 0 305.4673620324097 Z" transform="matrix(1,0,0,1,0,114)" opacity="0.29"></path><path d="M 0 322.4980985838767 Q 600 450 600 323.4324011239242 Q 1200 450 1200 322.70378843645176 Q 1800 450 1800 310.949761759226 Q 2400 450 2400 332.04174656181425 L 2400 800 L 0 800 L 0 305.4673620324097 Z" transform="matrix(1,0,0,1,0,171)" opacity="0.53"></path><path d="M 0 322.4980985838767 Q 600 450 600 323.4324011239242 Q 1200 450 1200 322.70378843645176 Q 1800 450 1800 310.949761759226 Q 2400 450 2400 332.04174656181425 L 2400 800 L 0 800 L 0 305.4673620324097 Z" transform="matrix(1,0,0,1,0,228)" opacity="0.76"></path><path d="M 0 322.4980985838767 Q 600 450 600 323.4324011239242 Q 1200 450 1200 322.70378843645176 Q 1800 450 1800 310.949761759226 Q 2400 450 2400 332.04174656181425 L 2400 800 L 0 800 L 0 305.4673620324097 Z" transform="matrix(1,0,0,1,0,285)" opacity="1.00"></path></g></svg>